<svg xmlns="http://www.w3.org/2000/svg" viewBox="0 0 24.37 27.37">
  <rect x="5.49" y="4.87" width="13.4" height="1.7"/>
  <rect x="5.49" y="9.04" width="13.4" height="1.7"/>
  <rect x="4.49" y="21.49" width="4.25" height="1.7"/>
  <path d="M253.37,58.52a6.11,6.11,0,1,1-6.11,6.1,6.11,6.11,0,0,1,6.11-6.1m0-1.7a7.81,7.81,0,1,0,7.8,7.8,7.81,7.81,0,0,0-7.8-7.8Z" transform="translate(-241.18 -56.82)"/>
  <path d="M247,74.68a12.42,12.42,0,0,0,12.68,0A6.88,6.88,0,0,1,263.85,81v1.48h-21V81A6.88,6.88,0,0,1,247,74.68m12.53-1.93a10.73,10.73,0,0,1-12.39,0v.06a8.64,8.64,0,0,0-6,8.19v1.54a1.65,1.65,0,0,0,1.65,1.64h21.08a1.65,1.65,0,0,0,1.64-1.64V81a8.62,8.62,0,0,0-6-8.19v-.06Z" transform="translate(-241.18 -56.82)"/>
</svg>
