<svg xmlns="http://www.w3.org/2000/svg" viewBox="0 0 30 27.37">
  <path d="M278.79,81.55a2.64,2.64,0,1,0,2.64-2.64A2.64,2.64,0,0,0,278.79,81.55Zm2.64-.88a.88.88,0,1,1-.88.88A.87.87,0,0,1,281.43,80.67Z" transform="translate(-270 -56.82)"/>
  <path d="M291.21,81.55a2.64,2.64,0,1,0,2.64-2.64A2.64,2.64,0,0,0,291.21,81.55Zm2.64-.88a.88.88,0,1,1-.88.88A.88.88,0,0,1,293.85,80.67Z" transform="translate(-270 -56.82)"/>
  <path d="M287.87,70.3a1.88,1.88,0,0,1-1.36-.57l-4.35-4.67a1.56,1.56,0,0,1-.23-1.85,1.81,1.81,0,0,1,1.59-.89h.69V58.23a1.42,1.42,0,0,1,1.42-1.41h4.47a1.41,1.41,0,0,1,1.42,1.41v4.09h.7a1.78,1.78,0,0,1,1.58.89h0a1.56,1.56,0,0,1-.23,1.85l-4.35,4.67A1.86,1.86,0,0,1,287.87,70.3ZM283.52,64l4.24,4.55a.41.41,0,0,0,.22,0L292.21,64h-2.39v-5.5h-3.91V64Z" transform="translate(-270 -56.82)"/>
  <path d="M279.67,74.39h15.94a.88.88,0,0,0,.84-.63L300,61.45a.89.89,0,0,0-.15-.77.86.86,0,0,0-.7-.35H293v.59a3.27,3.27,0,0,1,1.82,1.17H298l-3,10.55H280.37L278,62.09h2.87a3.25,3.25,0,0,1,1.81-1.17v-.59h-5.07L277,57.5a.88.88,0,0,0-.86-.68h-5.27a.88.88,0,1,0,0,1.75h4.57c.11.51,3,13.53,3.17,14.28a2.64,2.64,0,0,0,1.05,5.06h15.94a.88.88,0,0,0,0-1.76H279.67a.87.87,0,0,1-.88-.88A.89.89,0,0,1,279.67,74.39Z" transform="translate(-270 -56.82)"/>
</svg>
