<svg xmlns="http://www.w3.org/2000/svg" viewBox="0 0 25.75 26.5">
  <g>
    <path d="M333.84,28.61l4.69-5a.77.77,0,0,0,.12-.92,1,1,0,0,0-.91-.49h-1.67V16.83a.61.61,0,0,0-.61-.61h-4.83a.61.61,0,0,0-.61.61v5.33h-1.66a1,1,0,0,0-.91.49.76.76,0,0,0,.12.92l4.69,5a1.09,1.09,0,0,0,.79.32A1.13,1.13,0,0,0,333.84,28.61Z" transform="translate(-320.17 -12.25)" fill="none" stroke-miterlimit="10"/>
    <rect x="5.75" y="20.04" width="14.25" height="2.5" rx="1.25" fill="none" stroke-miterlimit="10"/>
  </g>
  <rect x="0.5" y="0.5" width="24.75" height="25.5" rx="2.08" fill="none" stroke-miterlimit="10"/>
</svg>
