<svg xmlns="http://www.w3.org/2000/svg" viewBox="0 0 27.37 27.37">
  <path d="M285.31,17a12,12,0,1,1-12,12,12,12,0,0,1,12-12m0-1.7A13.69,13.69,0,1,0,299,29a13.68,13.68,0,0,0-13.68-13.68Z" transform="translate(-271.63 -15.31)"/>
  <path d="M288.39,29l3.51-3.51a.87.87,0,0,0,0-1.23l-1.85-1.85a.87.87,0,0,0-1.23,0l-3.51,3.51L281.8,22.4a.87.87,0,0,0-1.23,0l-1.85,1.85a.87.87,0,0,0,0,1.23L282.23,29l-3.51,3.51a.87.87,0,0,0,0,1.23l1.85,1.85a.87.87,0,0,0,1.23,0l3.51-3.51,3.51,3.51a.87.87,0,0,0,1.23,0l1.85-1.85a.87.87,0,0,0,0-1.23Z" transform="translate(-271.63 -15.31)"/>
</svg>
