<svg xmlns="http://www.w3.org/2000/svg" viewBox="0 0 25.75 26.5">
  <rect x="0.5" y="0.5" width="24.75" height="25.5" rx="2.08" fill="none" />
  <path d="M451.2,23.32h-.74v-2a4.14,4.14,0,0,0-8.27,0v2h-.89a1.47,1.47,0,0,0-1.47,1.48v7.74A1.47,1.47,0,0,0,441.3,34h9.9a1.47,1.47,0,0,0,1.47-1.48V24.8A1.47,1.47,0,0,0,451.2,23.32Zm-8-2a3.14,3.14,0,0,1,6.27,0v2h-6.27Zm8.48,11.18a.48.48,0,0,1-.47.48h-9.9a.48.48,0,0,1-.47-.48V24.8a.47.47,0,0,1,.47-.48h9.9a.47.47,0,0,1,.47.48Z" transform="translate(-433.38 -12.12)"/>
  <path d="M446.27,27.07a.63.63,0,0,1,.63.62v2a.63.63,0,0,1-.63.62h0a.63.63,0,0,1-.63-.62v-2a.63.63,0,0,1,.63-.62h0m0-1h0a1.62,1.62,0,0,0-1.63,1.62v2a1.65,1.65,0,0,0,3.3,0v-2a1.62,1.62,0,0,0-1.63-1.62Z" transform="translate(-433.38 -12.12)"/>
</svg>
