<svg xmlns="http://www.w3.org/2000/svg" viewBox="0 0 27.36 27.36">
  <path d="M13.68,1.7a12,12,0,1,1-12,12,12,12,0,0,1,12-12m0-1.7A13.68,13.68,0,1,0,27.37,13.68,13.67,13.67,0,0,0,13.68,0Z" transform="translate(-0.01 0)"/>
  <path d="M13.32,19.47,9.4,21.53a.78.78,0,0,1-1.06-.31.85.85,0,0,1-.08-.52L9,16.34a.76.76,0,0,0-.22-.7L5.61,12.55a.78.78,0,0,1,0-1.1A.74.74,0,0,1,6,11.21l4.38-.64a.75.75,0,0,0,.6-.43l2-4a.79.79,0,0,1,1.06-.35.84.84,0,0,1,.35.35l2,4a.74.74,0,0,0,.59.43l4.38.64a.79.79,0,0,1,.66.9.74.74,0,0,1-.22.44l-3.17,3.09a.79.79,0,0,0-.23.7l.75,4.36a.78.78,0,0,1-.62.91.73.73,0,0,1-.52-.08l-3.92-2.06A.79.79,0,0,0,13.32,19.47Z" transform="translate(-0.01 0)"/>
</svg>
