<svg xmlns="http://www.w3.org/2000/svg" viewBox="0 0 25.75 26.5">
  <g>
    <path d="M468.54,24.58l5-4.69a.78.78,0,0,1,.92-.12,1,1,0,0,1,.5.91v1.67h5.32a.61.61,0,0,1,.61.61v4.83a.61.61,0,0,1-.61.61H475v1.67a1,1,0,0,1-.5.91.76.76,0,0,1-.91-.13l-5-4.69a1.09,1.09,0,0,1-.32-.79A1.13,1.13,0,0,1,468.54,24.58Z" transform="translate(-464.38 -12.12)" fill="none" stroke-miterlimit="10"/>
    <rect x="477.91" y="24.12" width="14.25" height="2.5" rx="1.25" transform="translate(-4.71 498.29) rotate(-90)" fill="none" stroke-miterlimit="10"/>
  </g>
  <rect x="0.5" y="0.5" width="24.75" height="25.5" rx="2.08" fill="none" stroke-miterlimit="10"/>
</svg>
