<svg xmlns="http://www.w3.org/2000/svg" viewBox="0 0 32.32 26.5">
  <path d="M230.85,34.67,217.12,13.51a1.54,1.54,0,0,0-1.26-.75H216l-.07,0h-.15l-.08,0h.13a1.56,1.56,0,0,0-1.26.75L200.84,34.67a2.72,2.72,0,0,0-.53,2.49,1.74,1.74,0,0,0,1.34,1.05l.26,0h27.87a1.42,1.42,0,0,0,.3-.06,1.7,1.7,0,0,0,1.3-1A2.78,2.78,0,0,0,230.85,34.67Z" transform="translate(-199.68 -12.25)" fill="none" stroke-miterlimit="10"/>
  <g>
    <path d="M215.86,32.09a1.54,1.54,0,1,0,1.53,1.53A1.53,1.53,0,0,0,215.86,32.09Z" transform="translate(-199.68 -12.25)" fill="none" stroke-miterlimit="10"/>
    <path d="M215.85,18.44h0c-2.36,0-2,4.26-1.65,6.17.66,3.05,1.54,6,1.54,6a.13.13,0,0,0,.11.11h0a.13.13,0,0,0,.12-.11s.88-2.94,1.53-6C217.9,22.7,218.22,18.47,215.85,18.44Z" transform="translate(-199.68 -12.25)" fill="none" stroke-miterlimit="10"/>
  </g>
</svg>
