<svg xmlns="http://www.w3.org/2000/svg" viewBox="0 0 13.61 20.85">
  <path d="M71.93,118a.4.4,0,0,0,.39.39H82.86a.4.4,0,0,0,.39-.39v-1.69H71.93Zm5.66-1.22a.56.56,0,0,1,.57.57.57.57,0,0,1-.57.57.58.58,0,0,1-.57-.57A.57.57,0,0,1,77.59,116.81Z" transform="translate(-70.79 -98.71)" fill="none"/>
  <path d="M82.86,98.71H72.32a1.54,1.54,0,0,0-1.53,1.54V118a1.54,1.54,0,0,0,1.53,1.54H82.86A1.54,1.54,0,0,0,84.4,118V100.25A1.54,1.54,0,0,0,82.86,98.71ZM83.25,118a.4.4,0,0,1-.39.39H72.32a.4.4,0,0,1-.39-.39v-1.69H83.25Zm0-16.27v13.65H71.93V100.25a.4.4,0,0,1,.39-.39H82.86a.4.4,0,0,1,.39.39Z" transform="translate(-70.79 -98.71)"/>
  <path d="M77.59,118a.57.57,0,0,0,.57-.57.56.56,0,0,0-.57-.57.57.57,0,0,0-.57.57A.58.58,0,0,0,77.59,118Z" transform="translate(-70.79 -98.71)"/>
  <path d="M78.73,101.34H76.45a.47.47,0,1,0,0,.93h2.28a.47.47,0,1,0,0-.93Z" transform="translate(-70.79 -98.71)"/>
</svg>
