<svg xmlns="http://www.w3.org/2000/svg" viewBox="0 0 29.67 29.71">
  <g>
    <path d="M63.3,112.53a2.89,2.89,0,0,0-2.12-1,3,3,0,0,0-2.14,1l-2,2-.48-.25c-.22-.12-.44-.22-.62-.34a21.46,21.46,0,0,1-5.16-4.7,12.62,12.62,0,0,1-1.69-2.67c.51-.47,1-1,1.45-1.43l.53-.53a2.89,2.89,0,0,0,0-4.34l-1.71-1.71-.59-.6c-.37-.39-.77-.79-1.18-1.17a3,3,0,0,0-2.1-.92,3.09,3.09,0,0,0-2.13.92v0l-2.13,2.15a4.54,4.54,0,0,0-1.36,2.91,11,11,0,0,0,.8,4.66,26.86,26.86,0,0,0,4.8,8,29.39,29.39,0,0,0,9.82,7.69,15.42,15.42,0,0,0,5.52,1.63h.39a4.73,4.73,0,0,0,3.62-1.55l0,0a11.72,11.72,0,0,1,1.1-1.14c.27-.26.54-.52.81-.81a3.13,3.13,0,0,0,.95-2.17,3,3,0,0,0-1-2.15Zm2.24,6.6h0c-.24.26-.49.5-.76.77a14.42,14.42,0,0,0-1.21,1.25,3,3,0,0,1-2.36,1h-.29A13.65,13.65,0,0,1,56,120.67a27.75,27.75,0,0,1-9.25-7.25,25.49,25.49,0,0,1-4.52-7.51,9.09,9.09,0,0,1-.7-3.93,2.86,2.86,0,0,1,.86-1.86L44.56,98a1.45,1.45,0,0,1,1-.45,1.34,1.34,0,0,1,.91.44l0,0c.38.36.75.73,1.13,1.12.19.21.39.41.59.61l1.72,1.71a1.21,1.21,0,0,1,0,1.95l-.54.54c-.53.54-1,1-1.58,1.53l0,0a1.26,1.26,0,0,0-.32,1.42V107a14,14,0,0,0,2,3.3h0A23.23,23.23,0,0,0,55,115.34c.26.16.53.29.78.42l.62.33.07,0a1.36,1.36,0,0,0,.62.16,1.4,1.4,0,0,0,1-.43l2.14-2.15a1.42,1.42,0,0,1,1-.47,1.27,1.27,0,0,1,.9.46h0l3.46,3.46A1.24,1.24,0,0,1,65.54,119.13Z" transform="translate(-39.84 -94.12)"/>
    <path d="M55.87,101.19a7.91,7.91,0,0,1,4.33,2.25,8,8,0,0,1,2.25,4.32.83.83,0,0,0,.83.7h.14a.84.84,0,0,0,.7-1,9.76,9.76,0,0,0-8-8,.86.86,0,0,0-1,.69A.84.84,0,0,0,55.87,101.19Z" transform="translate(-39.84 -94.12)"/>
    <path d="M69.49,107.23A16.07,16.07,0,0,0,56.4,94.14a.84.84,0,1,0-.27,1.66,14.39,14.39,0,0,1,11.7,11.7.84.84,0,0,0,.83.71l.14,0A.81.81,0,0,0,69.49,107.23Z" transform="translate(-39.84 -94.12)"/>
  </g>
</svg>
