<svg xmlns="http://www.w3.org/2000/svg" viewBox="0 0 27.37 27.37">
  <path d="M214.46,58.52a12,12,0,1,1-12,12,12,12,0,0,1,12-12m0-1.7A13.68,13.68,0,1,0,228.14,70.5a13.68,13.68,0,0,0-13.68-13.68Z" transform="translate(-200.77 -56.82)"/>
  <path d="M215.05,73.38h-1.59v-.44a4.5,4.5,0,0,1,0-.66,1.78,1.78,0,0,1,.18-.55q.13-.27.21-.45a1.39,1.39,0,0,1,.33-.4,3.5,3.5,0,0,0,.33-.32,2.06,2.06,0,0,1,.42-.28l.4-.23.45-.22.41-.21a2.25,2.25,0,0,0,1.5-2c0-1.43-1-2.14-3.07-2.14q-3.34,0-3.34,2.77v.45h-1.58v-.52A4,4,0,0,1,211,65a5.23,5.23,0,0,1,3.6-1.12,5.6,5.6,0,0,1,3.55,1,3.34,3.34,0,0,1,1.23,2.75,3.53,3.53,0,0,1-.2,1.21,4.11,4.11,0,0,1-.4.86,2.8,2.8,0,0,1-.7.65c-.32.22-.56.37-.7.45l-.79.37a2.22,2.22,0,0,0-1.53,2Zm0,3.87h-1.67v-2h1.67Z" transform="translate(-200.77 -56.82)"/>
</svg>
