<svg xmlns="http://www.w3.org/2000/svg" viewBox="0 0 13 12.42">
  <g>
    <path d="M275.14,21.27a1.46,1.46,0,0,0-.68-.17,1.49,1.49,0,0,0-.68.17l-2.64,1.39.5-2.94a1.46,1.46,0,0,0-.42-1.3l-2.14-2.08,3-.43a1.47,1.47,0,0,0,1.1-.8l1.32-2.68,1.32,2.68a1.49,1.49,0,0,0,1.11.8l2.95.43-2.13,2.08a1.47,1.47,0,0,0-.43,1.3l.51,2.94Z" transform="translate(-267.96 -11.28)" fill="#fe0000"/>
    <path d="M274.46,14.35l.56,1.13a2.31,2.31,0,0,0,1.75,1.27l1.25.18-.91.88a2.32,2.32,0,0,0-.66,2.05l.21,1.25-1.12-.59a2.37,2.37,0,0,0-1.08-.27,2.43,2.43,0,0,0-1.08.27l-1.11.59.21-1.25a2.3,2.3,0,0,0-.67-2.05l-.9-.88,1.25-.18a2.29,2.29,0,0,0,1.74-1.27l.56-1.13m0-3.07a.61.61,0,0,0-.55.35l-1.53,3.1a.62.62,0,0,1-.46.34l-3.43.49a.62.62,0,0,0-.34,1L270.63,19a.62.62,0,0,1,.17.55L270.22,23a.62.62,0,0,0,.61.72.72.72,0,0,0,.28-.07L274.18,22a.68.68,0,0,1,.28-.07.73.73,0,0,1,.29.07l3.06,1.62a.77.77,0,0,0,.29.07.63.63,0,0,0,.61-.72l-.59-3.41a.62.62,0,0,1,.18-.55l2.48-2.42a.62.62,0,0,0-.35-1L277,15.07a.62.62,0,0,1-.46-.34L275,11.63a.61.61,0,0,0-.55-.35Z" transform="translate(-267.96 -11.28)" fill="#fe0000"/>
  </g>
</svg>
