<?xml version="1.0" encoding="utf-8"?><svg viewBox="0 0 32.32 29.71" xmlns="http://www.w3.org/2000/svg" xmlns:xlink="http://www.w3.org/1999/xlink"><style>:root>svg{display:none}:root>svg:target{display:block}</style><svg viewBox="0 0 24.37 27.37" id="ic_account" xmlns="http://www.w3.org/2000/svg"><path d="M5.49 4.87h13.4v1.7H5.49zM5.49 9.04h13.4v1.7H5.49zM4.49 21.49h4.25v1.7H4.49z"/><path d="M12.19 1.7a6.11 6.11 0 1 1-6.11 6.1 6.11 6.11 0 0 1 6.11-6.1m0-1.7a7.81 7.81 0 1 0 7.8 7.8 7.81 7.81 0 0 0-7.8-7.8z"/><path d="M5.82 17.86a12.42 12.42 0 0 0 12.68 0 6.88 6.88 0 0 1 4.17 6.32v1.48h-21v-1.48a6.88 6.88 0 0 1 4.15-6.32m12.53-1.93a10.73 10.73 0 0 1-12.39 0v.06a8.64 8.64 0 0 0-6 8.19v1.54a1.65 1.65 0 0 0 1.65 1.64h21.08a1.65 1.65 0 0 0 1.64-1.64v-1.54a8.62 8.62 0 0 0-6-8.19v-.06z"/></svg><svg viewBox="0 0 17.31 19.19" id="ic_buttonUp" xmlns="http://www.w3.org/2000/svg"><path d="M7.52.97L.81 8.18a1.11 1.11 0 0 0-.17 1.31 1.49 1.49 0 0 0 1.3.71h2.38v7.61a.89.89 0 0 0 .88.88h6.9a.89.89 0 0 0 .88-.88V10.2h2.38a1.48 1.48 0 0 0 1.3-.71 1.09 1.09 0 0 0-.17-1.31L9.78.97A1.52 1.52 0 0 0 8.65.5a1.54 1.54 0 0 0-1.13.47z" fill="none"/></svg><svg viewBox="0 0 30 27.37" id="ic_cart" xmlns="http://www.w3.org/2000/svg"><path d="M8.79 24.73a2.64 2.64 0 1 0 2.64-2.64 2.64 2.64 0 0 0-2.64 2.64zm2.64-.88a.88.88 0 1 1-.88.88.87.87 0 0 1 .88-.88zM21.21 24.73a2.64 2.64 0 1 0 2.64-2.64 2.64 2.64 0 0 0-2.64 2.64zm2.64-.88a.88.88 0 1 1-.88.88.88.88 0 0 1 .88-.88zM17.87 13.48a1.88 1.88 0 0 1-1.36-.57l-4.35-4.67a1.56 1.56 0 0 1-.23-1.85 1.81 1.81 0 0 1 1.59-.89h.69V1.41A1.42 1.42 0 0 1 15.63 0h4.47a1.41 1.41 0 0 1 1.42 1.41V5.5h.7a1.78 1.78 0 0 1 1.58.89 1.56 1.56 0 0 1-.23 1.85l-4.35 4.67a1.86 1.86 0 0 1-1.35.57zm-4.35-6.3l4.24 4.55a.41.41 0 0 0 .22 0l4.23-4.55h-2.39v-5.5h-3.91v5.5z"/><path d="M9.67 17.57h15.94a.88.88 0 0 0 .84-.63L30 4.63a.89.89 0 0 0-.15-.77.86.86 0 0 0-.7-.35H23v.59a3.27 3.27 0 0 1 1.82 1.17H28l-3 10.55H10.37L8 5.27h2.87a3.25 3.25 0 0 1 1.81-1.17v-.59H7.61L7 .68A.88.88 0 0 0 6.14 0H.87a.88.88 0 1 0 0 1.75h4.57c.11.51 3 13.53 3.17 14.28a2.64 2.64 0 0 0 1.05 5.06H25.6a.88.88 0 0 0 0-1.76H9.67a.87.87 0 0 1-.88-.88.89.89 0 0 1 .88-.88z"/></svg><svg viewBox="0 0 14.69 14.69" id="ic_close" xmlns="http://www.w3.org/2000/svg"><path d="M10.43 7.39l3.51-3.51a.87.87 0 0 0 0-1.23L12.09.8a.87.87 0 0 0-1.23 0L7.35 4.31 3.84.8a.87.87 0 0 0-1.23 0L.76 2.65a.87.87 0 0 0 0 1.23l3.51 3.51L.76 10.9a.87.87 0 0 0 0 1.23l1.89 1.81a.87.87 0 0 0 1.23 0l3.47-3.55 3.51 3.51a.87.87 0 0 0 1.23 0l1.85-1.85a.87.87 0 0 0 0-1.23z" stroke="#fe0000" stroke-miterlimit="10"/></svg><svg viewBox="0 0 25.75 26.5" id="ic_continue" xmlns="http://www.w3.org/2000/svg"><rect x=".5" y=".5" width="24.75" height="25.5" rx="2.08" fill="none"/><path d="M18.56 16.12l3.22-6.7a.89.89 0 0 0-.15-.77.86.86 0 0 0-.7-.35H8.82l-1-2.82a.87.87 0 0 0-.86-.69H4.25a.88.88 0 1 0 0 1.76h2c.11.5 3 8.53 3.17 9.28.62 1.52 1.53 1.52 2 1.52h5a2 2 0 0 0 2.14-1.23z" fill="none"/><circle cx="11.21" cy="20.57" r="1.15" fill="none"/><circle cx="16.54" cy="20.57" r="1.15" fill="none"/><path fill="none" d="M11.64 11.17h4.89M12.64 14.17h2.89"/></svg><svg viewBox="0 0 27.37 27.37" id="ic_del" xmlns="http://www.w3.org/2000/svg"><path d="M13.68 1.69a12 12 0 1 1-12 12 12 12 0 0 1 12-12m0-1.7a13.69 13.69 0 1 0 13.69 13.7A13.68 13.68 0 0 0 13.69.01z"/><path d="M16.76 13.69l3.51-3.51a.87.87 0 0 0 0-1.23L18.42 7.1a.87.87 0 0 0-1.23 0l-3.51 3.51-3.51-3.52a.87.87 0 0 0-1.23 0L7.09 8.94a.87.87 0 0 0 0 1.23l3.51 3.52-3.51 3.51a.87.87 0 0 0 0 1.23l1.85 1.85a.87.87 0 0 0 1.23 0l3.51-3.51 3.51 3.51a.87.87 0 0 0 1.23 0l1.85-1.85a.87.87 0 0 0 0-1.23z"/></svg><svg viewBox="0 0 25.75 26.5" id="ic_download" xmlns="http://www.w3.org/2000/svg"><g fill="none"><path d="M13.67 16.36l4.69-5a.77.77 0 0 0 .12-.92 1 1 0 0 0-.91-.49H15.9V4.58a.61.61 0 0 0-.61-.61h-4.83a.61.61 0 0 0-.61.61v5.33H8.19a1 1 0 0 0-.91.49.76.76 0 0 0 .12.92l4.69 5a1.09 1.09 0 0 0 .79.32 1.13 1.13 0 0 0 .79-.28z"/><rect x="5.75" y="20.04" width="14.25" height="2.5" rx="1.25"/></g><rect x=".5" y=".5" width="24.75" height="25.5" rx="2.08" fill="none"/></svg><svg viewBox="0 0 25.75 26.5" id="ic_edit_info" xmlns="http://www.w3.org/2000/svg"><rect x=".5" y=".5" width="24.75" height="25.5" rx="2.08" fill="none"/><path d="M18.56 16.12l3.22-6.7a.89.89 0 0 0-.15-.77.86.86 0 0 0-.7-.35H8.82l-1-2.82a.87.87 0 0 0-.86-.69H4.25a.88.88 0 1 0 0 1.76h2c.11.5 3 8.53 3.17 9.28.62 1.52 1.53 1.52 2 1.52h5a2 2 0 0 0 2.14-1.23z" fill="none"/><circle cx="11.21" cy="20.57" r="1.15" fill="none"/><circle cx="16.54" cy="20.57" r="1.15" fill="none"/><path fill="none" d="M11.64 11.17h4.89M12.64 14.17h2.89"/></svg><svg viewBox="0 0 25.75 26.5" id="ic_edit_pass" xmlns="http://www.w3.org/2000/svg"><rect x=".5" y=".5" width="24.75" height="25.5" rx="2.08" fill="none"/><path d="M17.82 11.2h-.74v-2a4.14 4.14 0 0 0-8.27 0v2h-.89a1.47 1.47 0 0 0-1.47 1.48v7.74a1.47 1.47 0 0 0 1.47 1.46h9.9a1.47 1.47 0 0 0 1.47-1.48v-7.72a1.47 1.47 0 0 0-1.47-1.48zm-8-2a3.14 3.14 0 0 1 6.27 0v2H9.82zm8.48 11.18a.48.48 0 0 1-.47.48h-9.9a.48.48 0 0 1-.47-.48v-7.7a.47.47 0 0 1 .47-.48h9.9a.47.47 0 0 1 .47.48z"/><path d="M12.89 14.95a.63.63 0 0 1 .63.62v2a.63.63 0 0 1-.63.62.63.63 0 0 1-.63-.62v-2a.63.63 0 0 1 .63-.62m0-1a1.62 1.62 0 0 0-1.63 1.62v2a1.65 1.65 0 0 0 3.3 0v-2a1.62 1.62 0 0 0-1.63-1.62z"/></svg><svg viewBox="0 0 27.36 27.36" id="ic_favorite" xmlns="http://www.w3.org/2000/svg"><path d="M13.67 1.7a12 12 0 1 1-12 12 12 12 0 0 1 12-12m0-1.7a13.68 13.68 0 1 0 13.69 13.68A13.67 13.67 0 0 0 13.67 0z"/><path d="M13.31 19.47l-3.92 2.06a.78.78 0 0 1-1.06-.31.85.85 0 0 1-.08-.52l.74-4.36a.76.76 0 0 0-.22-.7L5.6 12.55a.78.78 0 0 1 0-1.1.74.74 0 0 1 .39-.24l4.38-.64a.75.75 0 0 0 .6-.43l2-4a.79.79 0 0 1 1.06-.35.84.84 0 0 1 .35.35l2 4a.74.74 0 0 0 .59.43l4.38.64a.79.79 0 0 1 .66.9.74.74 0 0 1-.22.44l-3.17 3.09a.79.79 0 0 0-.23.7l.75 4.36a.78.78 0 0 1-.62.91.73.73 0 0 1-.52-.08l-3.92-2.06a.79.79 0 0 0-.77 0z"/></svg><svg viewBox="0 0 13.72 12.4" id="ic_link_arr" xmlns="http://www.w3.org/2000/svg"><path d="M12.89 5.41l-5-4.69A.77.77 0 0 0 6.97.6a1 1 0 0 0-.49.91v1.66H1.09a.61.61 0 0 0-.61.61v4.83a.61.61 0 0 0 .61.61h5.33v1.69a1 1 0 0 0 .49.91.77.77 0 0 0 .92-.12l5-4.69a1.14 1.14 0 0 0 0-1.58z" fill="none"/></svg><svg viewBox="0 0 25.75 26.5" id="ic_logout" xmlns="http://www.w3.org/2000/svg"><g fill="none"><path d="M4.16 12.46l5-4.69a.78.78 0 0 1 .92-.12 1 1 0 0 1 .5.91v1.67h5.32a.61.61 0 0 1 .61.61v4.83a.61.61 0 0 1-.61.61h-5.28v1.67a1 1 0 0 1-.5.91.76.76 0 0 1-.91-.13l-5-4.69a1.09 1.09 0 0 1-.32-.79 1.13 1.13 0 0 1 .27-.79z"/><rect x="477.91" y="24.12" width="14.25" height="2.5" rx="1.25" transform="rotate(-90 246.79 251.5)"/></g><rect x=".5" y=".5" width="24.75" height="25.5" rx="2.08" fill="none"/></svg><svg viewBox="0 0 32.32 26.5" id="ic_notice" xmlns="http://www.w3.org/2000/svg"><path d="M31.17 22.42L17.44 1.26a1.54 1.54 0 0 0-1.26-.75h.14-.3.13a1.56 1.56 0 0 0-1.26.75L1.16 22.42a2.72 2.72 0 0 0-.53 2.49 1.74 1.74 0 0 0 1.34 1.05H30.1a1.42 1.42 0 0 0 .3-.06 1.7 1.7 0 0 0 1.3-1 2.78 2.78 0 0 0-.53-2.48z" fill="none"/><g fill="none"><path d="M16.18 19.84a1.54 1.54 0 1 0 1.53 1.53 1.53 1.53 0 0 0-1.53-1.53zM16.17 6.19c-2.36 0-2 4.26-1.65 6.17.66 3.05 1.54 6 1.54 6a.13.13 0 0 0 .11.11.13.13 0 0 0 .12-.11s.88-2.94 1.53-6c.4-1.91.72-6.14-1.65-6.17z"/></g></svg><svg viewBox="0 0 13.61 20.85" id="ic_phone" xmlns="http://www.w3.org/2000/svg"><path d="M1.14 19.29a.4.4 0 0 0 .39.39h10.54a.4.4 0 0 0 .39-.39V17.6H1.14zm5.66-1.22a.56.56 0 0 1 .57.57.57.57 0 0 1-.57.57.58.58 0 0 1-.57-.57.57.57 0 0 1 .57-.54z" fill="none"/><path d="M12.07 0H1.53A1.54 1.54 0 0 0 0 1.54v17.75a1.54 1.54 0 0 0 1.53 1.54h10.54a1.54 1.54 0 0 0 1.54-1.54V1.54A1.54 1.54 0 0 0 12.07 0zm.39 19.29a.4.4 0 0 1-.39.39H1.53a.4.4 0 0 1-.39-.39V17.6h11.32zm0-16.27v13.65H1.14V1.54a.4.4 0 0 1 .39-.39h10.54a.4.4 0 0 1 .39.39z"/><path d="M6.8 19.29a.57.57 0 0 0 .57-.57.56.56 0 0 0-.57-.57.57.57 0 0 0-.57.57.58.58 0 0 0 .57.57zM7.94 2.63H5.66a.47.47 0 1 0 0 .93h2.28a.47.47 0 1 0 0-.93z"/></svg><svg viewBox="0 0 29.67 29.71" id="ic_phone2" xmlns="http://www.w3.org/2000/svg"><path d="M23.46 18.41a2.89 2.89 0 0 0-2.12-1 3 3 0 0 0-2.14 1l-2 2-.48-.25c-.22-.12-.44-.22-.62-.34a21.46 21.46 0 0 1-5.16-4.7 12.62 12.62 0 0 1-1.69-2.67c.51-.47 1-1 1.45-1.43l.53-.53a2.89 2.89 0 0 0 0-4.34L9.52 4.44l-.59-.6c-.37-.39-.77-.79-1.18-1.17a3 3 0 0 0-2.1-.92 3.09 3.09 0 0 0-2.13.92L1.39 4.82A4.54 4.54 0 0 0 .03 7.73a11 11 0 0 0 .8 4.66 26.86 26.86 0 0 0 4.8 8 29.39 29.39 0 0 0 9.82 7.69 15.42 15.42 0 0 0 5.52 1.63h.39a4.73 4.73 0 0 0 3.62-1.55 11.72 11.72 0 0 1 1.1-1.14c.27-.26.54-.52.81-.81a3.13 3.13 0 0 0 .95-2.17 3 3 0 0 0-1-2.15zm2.24 6.6c-.24.26-.49.5-.76.77a14.42 14.42 0 0 0-1.21 1.25 3 3 0 0 1-2.36 1h-.29a13.65 13.65 0 0 1-4.92-1.48 27.75 27.75 0 0 1-9.25-7.25 25.49 25.49 0 0 1-4.52-7.51 9.09 9.09 0 0 1-.7-3.93A2.86 2.86 0 0 1 2.55 6l2.17-2.12a1.45 1.45 0 0 1 1-.45 1.34 1.34 0 0 1 .91.44c.38.36.75.73 1.13 1.12.19.21.39.41.59.61l1.72 1.71a1.21 1.21 0 0 1 0 1.95l-.54.54c-.53.54-1 1-1.58 1.53a1.26 1.26 0 0 0-.32 1.42v.13a14 14 0 0 0 2 3.3 23.23 23.23 0 0 0 5.53 5.04c.26.16.53.29.78.42l.62.33h.07a1.36 1.36 0 0 0 .62.16 1.4 1.4 0 0 0 1-.43l2.14-2.15a1.42 1.42 0 0 1 1-.47 1.27 1.27 0 0 1 .9.46L25.75 23a1.24 1.24 0 0 1-.05 2.01zM16.03 7.07a7.91 7.91 0 0 1 4.33 2.25 8 8 0 0 1 2.25 4.32.83.83 0 0 0 .83.7h.14a.84.84 0 0 0 .7-1 9.76 9.76 0 0 0-8-8 .86.86 0 0 0-1 .69.84.84 0 0 0 .75 1.04z"/><path d="M29.65 13.11A16.07 16.07 0 0 0 16.56.02a.84.84 0 1 0-.27 1.66 14.39 14.39 0 0 1 11.7 11.7.84.84 0 0 0 .83.71h.14a.81.81 0 0 0 .69-.98z"/></svg><svg viewBox="0 0 27.37 27.37" id="ic_request" xmlns="http://www.w3.org/2000/svg"><path d="M13.69 1.7a12 12 0 1 1-12 12 12 12 0 0 1 12-12m0-1.7a13.68 13.68 0 1 0 13.68 13.68A13.68 13.68 0 0 0 13.69 0z"/><path d="M14.28 16.56h-1.59v-.44a4.5 4.5 0 0 1 0-.66 1.78 1.78 0 0 1 .18-.55q.13-.27.21-.45a1.39 1.39 0 0 1 .33-.4 3.5 3.5 0 0 0 .33-.32 2.06 2.06 0 0 1 .42-.28l.4-.23.45-.22.41-.21a2.25 2.25 0 0 0 1.5-2c0-1.43-1-2.14-3.07-2.14q-3.34 0-3.34 2.77v.45H8.93v-.52a4 4 0 0 1 1.3-3.18 5.23 5.23 0 0 1 3.6-1.12 5.6 5.6 0 0 1 3.55 1 3.34 3.34 0 0 1 1.23 2.75 3.53 3.53 0 0 1-.2 1.21 4.11 4.11 0 0 1-.4.86 2.8 2.8 0 0 1-.7.65c-.32.22-.56.37-.7.45l-.79.37a2.22 2.22 0 0 0-1.53 2zm0 3.87h-1.67v-2h1.67z"/></svg><svg viewBox="0 0 16 16" id="ic_search" xmlns="http://www.w3.org/2000/svg"><path d="M9.69 1.49a4.81 4.81 0 1 1-4.76 4.82 4.82 4.82 0 0 1 4.76-4.82m0-1.5A6.31 6.31 0 1 0 16 6.3 6.31 6.31 0 0 0 9.69-.01z"/><path d="M5.33 9.61L.22 14.72a.75.75 0 0 0 1.06 1.06l5.28-5.29h-.25a1 1 0 0 1-.98-.88z"/></svg></svg>